<svg xmlns="http://www.w3.org/2000/svg" viewBox="0 0 1227.4 1227.4"><defs><style>.cls-1{fill:#ffc500;}.cls-2{fill:#ff9f1e;}.cls-3{fill:#00305f;}.cls-4{fill:#fff;}.cls-5{fill:#ffe059;}</style></defs><title>Ресурс 1</title><g id="Слой_2" data-name="Слой 2"><g id="Слой_1-2" data-name="Слой 1"><g id="Layer_3" data-name="Layer 3"><circle class="cls-1" cx="613.7" cy="613.7" r="613.7"/><path class="cls-2" d="M657.2,1140.5c-339,0-613.7-274.8-613.7-613.7A613.57,613.57,0,0,1,87.9,297,610.74,610.74,0,0,0,0,613.7c0,338.9,274.8,613.7,613.7,613.7,257.7,0,478.3-158.8,569.2-383.9C1075.5,1021.5,880.2,1140.5,657.2,1140.5Z"/><ellipse class="cls-3" cx="362.8" cy="485.33" rx="94.9" ry="60.2" transform="translate(-137.89 826.62) rotate(-87.5)"/><circle class="cls-4" cx="392.3" cy="446.4" r="16.6"/><ellipse class="cls-3" cx="864.98" cy="484.59" rx="60.2" ry="94.9" transform="translate(-20.31 38.19) rotate(-2.5)"/><circle class="cls-4" cx="885.1" cy="446.4" r="16.6"/><path class="cls-5" d="M613.7,0A610.41,610.41,0,0,0,248.6,120.4a706.94,706.94,0,0,1,453.2-18.9,28.32,28.32,0,0,0-3.3,5.1c-18.2,33.9,18.9,89.1,82.7,123.3s130.4,34.6,148.6.8a38.4,38.4,0,0,0,3.7-10.5c165.2,128,271.9,328.1,272.9,553.1a613.51,613.51,0,0,0,21-159.6C1227.4,274.8,952.6,0,613.7,0Z"/><ellipse class="cls-5" cx="927.13" cy="286.75" rx="30.8" ry="52.8" transform="translate(468.75 1142.13) rotate(-79)"/><ellipse class="cls-5" cx="823.76" cy="307.42" rx="17.2" ry="25" transform="translate(145.65 867.11) rotate(-60)"/><path class="cls-3" d="M885.1,903.2a29.69,29.69,0,0,1-23-10.7c-32.3-38.4-70-68.5-112-89.5a305.22,305.22,0,0,0-136-32.4c-91.6,0-178.2,41.6-243.9,117.1a30,30,0,0,1-45.3-39.4c37.5-43,81-76.8,129.5-100.5A361.42,361.42,0,0,1,777,749.4c49.3,24.7,93.4,59.8,131,104.5a29.9,29.9,0,0,1-22.9,49.3Z"/></g></g></g></svg>